<?xml version="1.0" standalone="no"?>
<!DOCTYPE svg PUBLIC "-//W3C//DTD SVG 20010904//EN"
 "http://www.w3.org/TR/2001/REC-SVG-20010904/DTD/svg10.dtd">
<svg version="1.0" xmlns="http://www.w3.org/2000/svg"
 width="1120.000000pt" height="1120.000000pt" viewBox="0 0 1120.000000 1120.000000"
 preserveAspectRatio="xMidYMid meet">
<metadata>
Created by potrace 1.14, written by Peter Selinger 2001-2017
</metadata>
<g transform="translate(0.000000,1120.000000) scale(0.100000,-0.100000)"
fill="#000000" stroke="none">
<path d="M5270 10983 c-19 -1 -93 -8 -165 -14 -1378 -113 -2711 -808 -3600
-1879 -525 -631 -897 -1366 -1085 -2142 -176 -725 -201 -1456 -74 -2168 55
-307 139 -626 237 -895 474 -1303 1409 -2346 2652 -2960 340 -168 661 -288
1030 -385 88 -23 162 -43 164 -45 1 -2 -12 -4 -30 -4 -43 0 -196 -10 -229 -15
-37 -5 -102 -16 -129 -22 -42 -9 -9 -22 84 -35 232 -30 488 -39 1239 -44 696
-5 1242 5 1471 25 128 11 271 33 280 42 4 4 -15 10 -42 14 -26 3 -77 12 -112
20 -39 8 -90 11 -129 7 -51 -5 -63 -3 -57 6 6 10 0 11 -26 6 -19 -4 -31 -4
-28 -1 4 4 58 20 120 36 811 206 1547 586 2184 1129 243 207 590 577 796 851
559 743 928 1684 1023 2610 9 85 21 199 26 253 13 125 13 501 0 620 -5 51 -14
146 -20 212 -71 771 -337 1568 -748 2240 -217 354 -442 643 -731 939 -292 297
-559 518 -896 738 -875 574 -1886 873 -2928 866 -133 0 -258 -3 -277 -5z m565
-3563 c320 -45 653 -193 901 -401 189 -158 341 -350 453 -569 543 -1069 -75
-2351 -1251 -2594 -330 -68 -693 -37 -1013 88 -128 51 -170 71 -275 134 -197
119 -408 314 -543 502 -81 114 -204 359 -246 490 -145 449 -110 930 98 1355
277 564 823 943 1451 1005 96 10 319 4 425 -10z"/>
<path d="M5397 7250 c-190 -24 -377 -79 -542 -159 -328 -160 -580 -412 -749
-748 -120 -239 -168 -448 -168 -728 -1 -393 121 -732 378 -1052 295 -367 778
-593 1269 -593 856 0 1561 653 1635 1514 15 173 5 305 -37 495 -138 632 -645
1121 -1293 1251 -119 24 -381 34 -493 20z m483 -40 c0 -6 -109 -10 -306 -10
-201 0 -303 3 -299 10 4 6 117 10 306 10 193 0 299 -4 299 -10z m126 -33 c4
-4 -190 -7 -432 -7 -241 0 -434 4 -427 8 14 9 850 8 859 -1z m110 -29 c4 -5
-105 -9 -242 -9 -137 -1 -235 -5 -219 -9 17 -4 148 -8 293 -9 160 -1 262 -5
262 -11 0 -5 -55 -8 -139 -7 -77 1 -137 -1 -134 -5 2 -5 80 -8 173 -8 102 0
171 -4 175 -10 4 -6 -38 -10 -117 -11 -78 0 -116 -4 -103 -9 11 -5 82 -9 158
-9 84 -1 137 -5 137 -11 0 -6 -47 -10 -122 -10 -67 0 -119 -3 -116 -6 4 -3 66
-5 140 -5 139 0 168 -4 168 -20 0 -7 -36 -9 -95 -7 -52 2 -95 0 -95 -4 0 -5
49 -8 109 -8 111 0 141 -5 141 -22 0 -6 -33 -8 -80 -6 -44 2 -80 0 -80 -4 0
-5 42 -8 94 -8 52 0 101 -3 110 -6 36 -14 11 -24 -61 -25 -53 -1 -68 -4 -48
-8 17 -4 57 -5 90 -3 44 3 65 -1 80 -12 19 -14 14 -15 -58 -16 -50 0 -76 -4
-72 -10 3 -5 46 -10 95 -10 49 0 92 -4 95 -10 4 -6 -20 -10 -64 -10 -41 0 -71
-4 -71 -10 0 -6 35 -10 84 -10 62 0 87 -4 96 -15 11 -13 4 -15 -54 -15 -37 0
-66 -4 -66 -10 0 -6 33 -10 79 -10 58 0 82 -4 91 -15 11 -13 5 -15 -49 -15
-88 0 -75 -19 16 -22 50 -2 78 -7 81 -15 3 -10 -13 -13 -58 -13 -38 0 -59 -4
-55 -10 3 -5 37 -10 74 -10 49 0 72 -4 81 -15 11 -13 4 -15 -51 -15 -83 0 -66
-18 20 -22 40 -2 66 -8 69 -15 3 -10 -12 -13 -52 -13 -31 0 -56 -4 -56 -10 0
-6 29 -10 68 -10 56 0 69 -3 80 -20 12 -19 10 -20 -50 -20 -78 0 -69 -11 14
-16 34 -3 67 -9 73 -15 16 -16 -15 -30 -57 -27 -21 2 -38 0 -38 -4 0 -5 27 -8
60 -8 49 0 61 -3 70 -20 10 -19 8 -20 -50 -20 -33 0 -60 -4 -60 -10 0 -6 28
-10 63 -10 58 0 87 -11 87 -32 0 -4 -20 -8 -45 -8 -25 0 -45 -4 -45 -10 0 -5
22 -10 50 -10 39 0 52 -4 60 -20 10 -19 8 -20 -35 -20 -25 0 -45 -4 -45 -10 0
-5 22 -10 50 -10 39 0 52 -4 60 -20 10 -19 8 -20 -34 -20 -25 0 -48 -4 -51
-10 -4 -6 15 -10 49 -10 31 0 57 -4 58 -10 4 -31 0 -35 -42 -41 l-45 -6 51 -1
c37 -2 54 -7 58 -18 11 -29 6 -34 -34 -34 -56 0 -50 -18 8 -22 40 -3 47 -6 50
-25 3 -23 3 -23 -142 -23 -86 0 -147 -4 -151 -10 -4 -7 48 -10 148 -10 159 0
167 -2 167 -41 0 -5 -566 -9 -1425 -9 -943 0 -1425 -3 -1425 -10 0 -7 483 -10
1430 -10 l1430 0 0 -25 0 -25 -1082 0 c-596 0 -1316 -3 -1600 -7 l-518 -6 0
31 0 32 151 0 c97 0 148 4 144 10 -4 6 -63 10 -146 10 -78 0 -139 4 -139 9 0
37 11 41 124 41 83 1 106 3 93 11 -10 6 -28 8 -40 5 -12 -3 -52 -3 -89 1 -57
5 -68 9 -68 24 0 21 38 35 70 26 11 -3 23 -1 26 4 3 5 -13 9 -36 9 -37 0 -41
2 -38 23 3 19 10 22 51 25 57 4 63 22 7 22 -44 0 -45 2 -29 31 8 17 19 20 54
18 25 -2 47 0 51 4 4 4 -13 7 -38 7 -52 0 -61 6 -47 31 7 15 21 19 59 19 28 0
50 5 50 10 0 6 -11 8 -24 6 -14 -2 -34 -2 -45 1 -17 4 -19 9 -10 24 7 15 21
19 60 19 31 0 48 4 44 10 -3 6 -24 10 -46 10 -37 0 -39 2 -29 20 9 16 21 20
67 20 64 0 64 14 0 16 -52 2 -50 1 -38 23 8 14 22 18 66 19 31 0 59 3 62 6 4
3 -17 6 -45 6 -29 0 -52 2 -52 4 0 28 16 36 70 36 76 0 88 18 16 22 -45 2 -54
6 -46 17 6 10 30 16 75 17 85 3 98 14 17 14 -34 0 -62 4 -62 8 0 21 30 32 90
34 l65 2 -57 3 c-32 2 -58 7 -58 11 0 22 30 32 92 32 37 0 68 4 68 8 0 5 -24
8 -52 7 -63 -2 -73 2 -57 21 8 10 34 14 85 14 40 0 75 4 78 9 4 5 -22 7 -59 5
-36 -2 -65 0 -65 4 0 22 30 32 96 32 42 0 76 5 80 11 4 7 -14 10 -60 7 -61 -3
-80 2 -56 17 5 3 48 6 95 7 47 0 85 5 85 9 0 5 -32 9 -71 9 -52 0 -70 3 -67
13 3 8 34 13 96 15 107 3 125 22 21 22 -44 0 -68 4 -64 10 3 6 48 10 100 10
52 0 97 4 100 10 4 6 -24 10 -77 10 -74 1 -81 2 -64 15 13 10 40 13 85 12 36
-2 82 0 101 4 24 4 6 7 -55 8 -81 1 -88 3 -71 16 15 12 52 14 168 13 81 -1
151 2 155 5 3 4 -58 7 -137 7 -91 0 -141 3 -134 10 5 5 71 10 146 11 75 1 142
6 150 10 7 5 -39 9 -110 9 -80 0 -121 4 -117 10 4 6 63 10 143 10 75 0 144 5
152 10 10 7 -23 10 -103 10 -76 0 -116 4 -112 10 4 6 87 10 215 10 115 0 211
3 213 8 3 4 -78 6 -180 4 -127 -2 -183 0 -178 7 4 7 103 11 291 11 183 0 284
4 284 10 0 6 -89 11 -242 12 -134 0 -223 4 -198 7 66 9 1027 7 1036 -1z m1081
-1315 c15 -72 9 -391 -10 -490 -136 -723 -685 -1248 -1403 -1343 -135 -18
-393 -8 -524 20 -514 110 -912 419 -1141 885 -116 236 -163 438 -164 700 0 94
4 191 8 218 l8 47 1609 0 1609 0 8 -37z"/>
<path d="M5497 7099 c7 -7 15 -10 18 -7 3 3 -2 9 -12 12 -14 6 -15 5 -6 -5z"/>
<path d="M5566 7094 c19 -17 21 -27 17 -85 -4 -56 -9 -69 -27 -77 -17 -9 -13
-11 29 -11 39 0 46 2 33 10 -14 8 -18 23 -18 64 0 30 3 55 8 55 4 0 23 -30 42
-68 31 -59 39 -67 68 -70 17 -2 32 -2 32 0 0 2 3 35 6 73 4 53 10 74 26 88 15
13 16 17 5 17 -8 0 -30 3 -48 7 -33 6 -34 6 -16 -14 18 -21 25 -99 7 -88 -6 4
-22 29 -35 56 -19 36 -31 49 -48 49 -12 0 -40 3 -62 7 -40 6 -40 6 -19 -13z"/>
<path d="M5333 7070 c-80 -48 -64 -135 29 -160 36 -10 46 -9 86 12 73 38 83
110 19 148 -41 25 -93 25 -134 0z m81 -32 c3 -18 7 -51 8 -73 3 -34 0 -40 -17
-40 -22 0 -33 29 -34 98 -1 40 2 47 19 47 14 0 20 -9 24 -32z"/>
<path d="M5887 7063 c21 -21 21 -22 4 -80 -12 -41 -24 -61 -41 -70 -28 -14
-33 -11 94 -47 67 -19 93 -23 108 -15 25 13 48 68 48 113 0 44 -18 57 -125 86
-43 12 -86 25 -94 28 -8 3 -6 -3 6 -15z m128 -53 c18 -29 -30 -149 -50 -128
-9 9 25 138 36 138 4 0 11 -5 14 -10z"/>
<path d="M5240 7060 c0 -5 4 -10 9 -10 6 0 13 5 16 10 3 6 -1 10 -9 10 -9 0
-16 -4 -16 -10z"/>
<path d="M5125 7034 c-38 -13 -76 -31 -84 -38 -18 -19 -7 -96 20 -130 25 -32
54 -33 137 -5 59 20 62 22 56 47 -11 45 -23 61 -24 31 0 -30 -18 -55 -45 -63
-29 -8 -42 4 -60 53 -20 58 -19 68 9 86 20 14 29 14 48 4 13 -7 28 -19 35 -28
7 -9 13 -12 13 -8 0 10 -28 77 -32 76 -2 0 -34 -11 -73 -25z"/>
<path d="M6174 6971 c16 -17 15 -22 -9 -77 -27 -61 -41 -77 -62 -69 -7 2 -13
1 -13 -4 0 -5 28 -21 63 -36 97 -43 93 -42 75 -16 -16 22 -15 27 10 78 19 39
34 56 54 61 25 6 21 10 -54 44 -57 27 -76 32 -64 19z"/>
<path d="M4925 6940 c22 -4 49 -4 60 1 13 5 0 8 -40 7 -56 0 -58 -1 -20 -8z"/>
<path d="M4758 6861 l-87 -56 21 -33 c24 -38 31 -41 22 -8 -3 13 0 34 6 47 12
22 13 22 27 3 8 -10 26 -38 40 -62 21 -36 24 -47 15 -68 -11 -22 -6 -21 56 18
85 52 93 59 62 56 -19 -2 -32 8 -64 55 -30 43 -37 60 -28 69 9 9 18 8 39 -2
16 -8 32 -16 37 -18 5 -3 -2 10 -15 27 -12 17 -28 31 -33 30 -6 0 -50 -26 -98
-58z"/>
<path d="M4925 6900 c3 -5 22 -10 41 -10 19 0 34 5 34 10 0 6 -18 10 -41 10
-24 0 -38 -4 -34 -10z"/>
<path d="M5490 6899 c0 -5 5 -7 10 -4 6 3 10 8 10 11 0 2 -4 4 -10 4 -5 0 -10
-5 -10 -11z"/>
<path d="M6358 6862 c-30 -35 -30 -41 0 -30 16 6 37 8 46 5 15 -6 10 -16 -29
-67 -39 -51 -50 -60 -68 -54 -27 8 -25 6 38 -41 28 -21 56 -42 63 -48 10 -8
12 -5 7 14 -4 18 5 39 36 82 45 64 64 64 62 2 l-1 -35 19 24 c10 13 19 28 19
33 -1 7 -131 106 -166 126 -6 4 -18 -1 -26 -11z"/>
<path d="M4940 6860 c0 -5 18 -10 40 -10 22 0 40 5 40 10 0 6 -18 10 -40 10
-22 0 -40 -4 -40 -10z"/>
<path d="M5285 6860 c-4 -7 92 -10 282 -10 190 0 283 4 273 10 -20 13 -547 13
-555 0z"/>
<path d="M4960 6819 c-41 -3 -70 -7 -65 -8 12 -3 175 -7 175 -4 0 12 -49 17
-110 12z"/>
<path d="M5177 6822 c-9 -2 -17 -7 -17 -10 0 -4 108 -6 240 -5 132 1 322 2
422 3 100 0 179 3 176 6 -6 6 -792 11 -821 6z"/>
<path d="M4970 6770 c0 -7 197 -10 571 -10 377 0 568 3 564 10 -4 6 -205 10
-571 10 -369 0 -564 -3 -564 -10z"/>
<path d="M4581 6726 c-30 -31 -31 -33 -9 -29 16 3 32 -5 52 -26 34 -35 31 -36
-47 -16 l-57 15 -40 -38 c-45 -42 -50 -53 -19 -45 15 4 33 -6 65 -38 39 -38
44 -48 39 -74 l-5 -29 35 34 c41 40 42 42 12 35 -17 -5 -31 4 -62 35 -44 45
-43 46 54 24 68 -15 73 -15 92 2 11 9 18 21 17 25 -2 4 -25 31 -52 59 -37 39
-47 56 -43 75 2 14 3 25 3 25 -1 0 -17 -15 -35 -34z"/>
<path d="M4950 6720 c-10 -6 210 -10 630 -10 420 0 640 4 630 10 -9 6 -250 10
-630 10 -380 0 -621 -4 -630 -10z"/>
<path d="M6607 6679 c4 -15 -6 -33 -38 -65 -38 -39 -48 -44 -74 -39 -28 5 -27
2 30 -55 33 -33 61 -60 62 -60 2 0 1 10 -2 23 -9 33 73 112 109 105 14 -3 26
-4 26 -3 0 3 -111 115 -115 115 -2 0 -1 -9 2 -21z"/>
<path d="M4870 6670 c-10 -6 238 -10 710 -10 472 0 720 4 710 10 -9 6 -278 10
-710 10 -432 0 -701 -4 -710 -10z"/>
<path d="M4775 6620 c-4 -7 274 -10 790 -10 533 0 794 3 790 10 -9 14 -1572
13 -1580 0z"/>
<path d="M4735 6570 c-4 -7 282 -10 849 -10 564 0 856 3 856 10 0 7 -290 10
-849 10 -556 0 -852 -3 -856 -10z"/>
<path d="M4383 6518 c-23 -29 -83 -118 -83 -123 0 -3 8 0 19 6 15 10 26 7 67
-22 59 -41 66 -49 60 -71 -2 -10 -3 -18 -1 -18 3 0 77 98 89 118 6 10 2 11
-17 7 -37 -10 -130 59 -124 92 5 26 3 28 -10 11z"/>
<path d="M4670 6510 c0 -13 709 -13 730 0 10 6 -113 10 -357 10 -242 0 -373
-4 -373 -10z"/>
<path d="M5420 6475 l-33 -47 19 -33 c56 -95 170 -265 179 -265 16 0 95 128
89 143 -2 7 7 33 20 58 19 32 26 38 26 23 0 -12 -10 -33 -21 -48 -12 -15 -19
-29 -16 -32 5 -5 97 137 97 150 0 11 -52 86 -60 86 -4 0 -10 -10 -13 -22 -5
-18 -8 -19 -21 -8 -21 16 -20 27 2 33 9 3 1 5 -18 6 -25 0 -42 -6 -58 -24 -20
-21 -27 -23 -45 -13 -12 6 -25 15 -28 20 -3 5 -24 12 -46 15 -39 5 -42 4 -73
-42z m80 26 c0 -11 -26 -22 -34 -14 -12 12 -5 23 14 23 11 0 20 -4 20 -9z m20
-36 c0 -29 -12 -32 -31 -9 -10 13 -10 17 2 25 23 14 29 11 29 -16z m130 1 c0
-15 -7 -26 -20 -29 -11 -3 -18 -1 -15 3 3 5 1 12 -5 15 -8 5 -7 11 1 21 18 22
39 17 39 -10z m-45 -64 c-15 -72 -17 -78 -25 -57 -11 25 -12 89 -3 99 11 10
32 -22 28 -42z m-106 -26 l-1 -31 -13 30 c-8 17 -14 39 -14 50 0 20 0 20 14 1
8 -11 15 -34 14 -50z m197 20 c-4 -19 -11 -38 -17 -42 -10 -6 -3 60 8 79 10
18 15 -4 9 -37z m-137 -74 c20 -51 29 -152 13 -152 -20 0 -52 97 -52 160 0 73
8 71 39 -8z m74 -94 c-14 -32 -30 -58 -34 -58 -15 0 -10 96 7 136 41 98 37 94
45 34 7 -47 4 -63 -18 -112z m-160 115 c8 -16 18 -39 21 -53 5 -18 0 -14 -18
15 -24 37 -33 65 -21 65 2 0 11 -12 18 -27z"/>
<path d="M5563 6513 c9 -2 25 -2 35 0 9 3 1 5 -18 5 -19 0 -27 -2 -17 -5z"/>
<path d="M5765 6510 c8 -13 725 -14 725 0 0 7 -124 10 -366 10 -229 0 -363 -4
-359 -10z"/>
<path d="M6673 6486 c-49 -43 -29 -137 38 -172 39 -20 85 -18 109 6 43 43 20
144 -40 175 -41 21 -75 19 -107 -9z m135 -48 c4 -20 -93 -92 -113 -84 -28 10
-15 33 38 69 55 37 70 40 75 15z"/>
<path d="M4890 6460 l-285 -5 384 -3 c211 -1 382 1 378 4 -8 9 -154 10 -477 4z"/>
<path d="M5800 6458 c0 -5 167 -8 372 -8 204 0 369 3 366 6 -9 9 -738 10 -738
2z"/>
<path d="M4575 6400 c-4 -7 128 -10 389 -10 257 0 396 4 396 10 0 6 -136 10
-389 10 -249 0 -392 -4 -396 -10z"/>
<path d="M5815 6400 c-4 -7 130 -10 394 -10 261 0 401 3 401 10 0 6 -138 10
-394 10 -253 0 -397 -4 -401 -10z"/>
<path d="M4525 6340 c-4 -7 143 -10 434 -10 287 0 441 3 441 10 0 7 -151 10
-434 10 -279 0 -437 -4 -441 -10z"/>
<path d="M5770 6340 c0 -7 150 -10 430 -10 280 0 430 3 430 10 0 7 -150 10
-430 10 -280 0 -430 -3 -430 -10z"/>
<path d="M4232 6286 c-27 -61 -27 -74 0 -103 l21 -23 -36 0 c-34 0 -39 -4 -62
-50 -27 -54 -32 -71 -13 -52 18 18 43 15 98 -13 33 -17 50 -32 52 -47 3 -20 6
-17 24 20 21 41 20 54 -3 31 -9 -9 -20 -9 -42 1 -38 16 -40 32 -3 30 76 -5 80
8 22 65 -22 21 -38 40 -36 42 2 2 24 -5 50 -16 35 -15 46 -26 47 -43 0 -16 12
0 34 47 38 79 42 93 19 74 -13 -10 -25 -10 -70 6 -58 20 -70 29 -76 60 -3 15
-9 8 -26 -29z"/>
<path d="M6910 6298 c0 -25 -5 -29 -87 -63 -35 -15 -45 -15 -58 -5 -20 17 -18
3 5 -40 17 -30 19 -32 20 -12 0 17 11 27 46 43 26 11 49 18 51 15 2 -2 -14
-30 -37 -62 -31 -45 -40 -65 -35 -84 4 -14 9 -28 13 -32 4 -4 39 7 77 23 55
24 74 28 88 20 9 -6 17 -8 17 -4 0 16 -25 73 -32 73 -4 0 -7 -3 -7 -7 4 -24
-5 -36 -36 -49 -19 -7 -37 -14 -40 -14 -3 0 11 25 31 55 l37 55 -23 52 c-27
65 -30 68 -30 36z"/>
<path d="M4485 6280 c-4 -7 157 -10 474 -10 314 0 481 3 481 10 0 7 -165 10
-474 10 -306 0 -477 -4 -481 -10z"/>
<path d="M5735 6280 c-4 -7 158 -10 480 -10 322 0 484 3 480 10 -4 6 -175 10
-480 10 -305 0 -476 -4 -480 -10z"/>
<path d="M4640 6220 c-142 -4 -44 -6 318 -8 347 -1 521 1 517 8 -6 10 -453 10
-835 0z"/>
<path d="M5695 6220 c-4 -7 168 -10 510 -10 342 0 514 3 510 10 -4 6 -185 10
-510 10 -325 0 -506 -4 -510 -10z"/>
<path d="M5920 6160 c-190 -4 -102 -6 280 -6 305 0 512 1 460 3 -223 7 -483 8
-740 3z"/>
<path d="M4425 6152 c11 -4 263 -5 560 -2 l540 6 -560 1 c-308 1 -551 -1 -540
-5z"/>
<path d="M4518 6092 c-76 -1 -138 -6 -138 -10 0 -4 540 -6 1201 -4 805 1 1198
5 1194 12 -6 9 -1830 11 -2257 2z"/>
<path d="M4355 6020 c-4 -7 412 -10 1242 -9 705 0 1239 4 1228 9 -29 13 -2462
13 -2470 0z"/>
<path d="M5514 5741 c-96 -58 -102 -185 -11 -232 17 -9 16 -6 -6 14 -48 46
-58 95 -31 153 40 83 165 88 214 9 35 -57 21 -126 -36 -171 -18 -15 -18 -15 2
-5 42 20 74 70 74 114 0 105 -117 172 -206 118z"/>
<path d="M3992 5600 c0 -27 4 -50 10 -50 5 0 6 9 3 20 -4 11 -2 20 4 20 6 0
11 -7 11 -15 0 -22 18 -18 25 5 9 28 29 25 22 -2 -5 -19 -2 -23 18 -23 21 0
24 5 27 48 3 45 2 47 -23 47 -16 0 -30 -7 -34 -17 -6 -17 -7 -17 -16 0 -6 9
-19 17 -29 17 -16 0 -19 -7 -18 -50z"/>
<path d="M4152 5638 c-7 -7 -12 -25 -12 -40 0 -21 6 -31 26 -38 34 -13 41 -13
26 2 -17 17 -15 67 3 74 8 4 22 1 30 -6 12 -10 15 -9 15 4 0 20 -69 23 -88 4z"/>
<path d="M4271 5631 c-25 -25 -17 -57 18 -69 56 -20 104 35 61 70 -29 23 -55
23 -79 -1z m49 -26 c0 -19 -4 -35 -10 -35 -5 0 -10 16 -10 35 0 19 5 35 10 35
6 0 10 -16 10 -35z"/>
<path d="M4387 5626 c4 -19 13 -25 45 -30 32 -5 38 -10 33 -25 -4 -15 -1 -17
22 -13 26 3 28 7 28 48 l1 44 -67 0 c-64 0 -66 -1 -62 -24z m78 -4 c0 -18 -20
-15 -23 4 -3 10 1 15 10 12 7 -3 13 -10 13 -16z"/>
<path d="M4556 5638 c-21 -68 -19 -73 39 -81 48 -7 73 7 71 40 -2 43 -13 53
-62 53 -27 0 -46 -5 -48 -12z m64 -19 c0 -5 -7 -9 -15 -9 -15 0 -20 12 -9 23
8 8 24 -1 24 -14z m0 -40 c0 -5 -7 -9 -15 -9 -15 0 -20 12 -9 23 8 8 24 -1 24
-14z"/>
<path d="M6511 5636 c-15 -18 -3 -46 19 -46 31 0 32 -18 3 -23 -17 -2 -10 -5
20 -6 34 -1 49 3 53 14 8 20 -13 45 -37 45 -10 0 -21 5 -25 11 -5 8 3 10 25 7
17 -2 31 -1 31 4 0 14 -77 9 -89 -6z"/>
<path d="M6635 5605 c0 -42 2 -45 26 -45 23 0 25 3 21 30 -2 17 1 37 8 45 11
13 7 15 -21 15 -34 0 -34 -1 -34 -45z"/>
<path d="M6735 5605 l0 -45 52 0 c49 0 53 2 59 27 11 41 -7 58 -62 61 l-49 3
0 -46z m65 0 c0 -19 -4 -35 -10 -35 -5 0 -10 16 -10 35 0 19 5 35 10 35 6 0
10 -16 10 -35z"/>
<path d="M6875 5605 l0 -45 48 0 c35 0 47 4 47 15 0 13 -3 13 -20 3 -10 -7
-23 -8 -27 -4 -4 5 -2 11 5 13 6 3 12 11 12 18 0 7 -6 15 -12 18 -7 2 -9 8 -5
13 4 4 17 3 27 -4 17 -10 20 -10 20 3 0 11 -12 15 -47 15 l-48 0 0 -45z"/>
<path d="M7071 5620 c-9 -27 -8 -30 10 -30 10 0 19 -7 19 -15 0 -10 10 -15 29
-15 l29 0 -21 45 c-25 53 -50 59 -66 15z"/>
<path d="M4220 5570 c-8 -5 -11 -12 -7 -16 4 -4 13 -2 19 4 15 15 7 24 -12 12z"/>
<path d="M7045 5570 c-3 -5 1 -10 10 -10 9 0 13 5 10 10 -3 6 -8 10 -10 10 -2
0 -7 -4 -10 -10z"/>
<path d="M4030 5493 c0 -26 4 -33 20 -33 16 0 20 6 19 33 0 25 -2 28 -8 12 -8
-19 -8 -19 -19 0 -10 18 -11 17 -12 -12z"/>
<path d="M4110 5490 c0 -26 3 -31 10 -20 6 10 10 11 10 3 0 -29 17 -10 17 20
1 24 -1 27 -6 12 -8 -19 -8 -19 -19 0 -10 18 -11 16 -12 -15z"/>
<path d="M4168 5485 c2 -19 5 -35 7 -35 2 0 5 16 7 35 2 21 0 35 -7 35 -7 0
-9 -14 -7 -35z"/>
<path d="M4226 5504 c-9 -24 -7 -31 5 -11 6 9 14 15 20 12 5 -4 9 -1 9 4 0 17
-27 13 -34 -5z"/>
<path d="M4276 5505 c-8 -21 11 -58 27 -52 19 6 15 61 -4 65 -9 2 -19 -4 -23
-13z m34 -21 c0 -8 -4 -14 -10 -14 -5 0 -10 9 -10 21 0 11 5 17 10 14 6 -3 10
-13 10 -21z"/>
<path d="M4330 5490 c0 -26 3 -31 10 -20 6 10 10 11 10 3 0 -7 5 -13 10 -13 6
0 10 15 9 33 0 25 -2 28 -8 12 -8 -19 -8 -19 -19 0 -10 18 -11 16 -12 -15z"/>
<path d="M4382 5488 c4 -43 33 -46 33 -3 0 21 -5 31 -18 33 -15 3 -18 -2 -15
-30z m28 2 c0 -11 -4 -20 -10 -20 -5 0 -10 9 -10 20 0 11 5 20 10 20 6 0 10
-9 10 -20z"/>
<path d="M4432 5490 c0 -19 2 -27 5 -17 2 9 2 25 0 35 -3 9 -5 1 -5 -18z"/>
<path d="M4458 5490 c2 -16 8 -30 13 -30 5 0 9 14 9 30 0 18 -5 30 -13 30 -9
0 -12 -10 -9 -30z"/>
<path d="M4524 5506 c-9 -23 0 -51 16 -51 10 0 15 10 15 29 0 32 -21 47 -31
22z m22 -33 c-11 -11 -19 6 -11 24 8 17 8 17 12 0 3 -10 2 -21 -1 -24z"/>
<path d="M4570 5507 c0 -8 9 -22 20 -32 19 -17 20 -17 20 -1 0 17 -22 46 -34
46 -3 0 -6 -6 -6 -13z"/>
<path d="M4092 5485 c0 -16 2 -22 5 -12 2 9 2 23 0 30 -3 6 -5 -1 -5 -18z"/>
<path d="M4501 5474 c0 -11 3 -14 6 -6 3 7 2 16 -1 19 -3 4 -6 -2 -5 -13z"/>
<path d="M4230 5460 c0 -5 7 -10 15 -10 8 0 15 5 15 10 0 6 -7 10 -15 10 -8 0
-15 -4 -15 -10z"/>
<path d="M4150 5393 c0 -28 3 -34 10 -23 9 13 11 13 19 1 7 -10 9 -4 8 20 -1
23 -7 35 -19 37 -15 3 -18 -4 -18 -35z"/>
<path d="M4207 5423 c-4 -3 -7 -19 -7 -35 0 -20 5 -28 18 -28 14 0 15 2 2 10
-9 6 -11 13 -5 18 13 9 18 42 7 42 -5 0 -12 -3 -15 -7z"/>
<path d="M4257 5423 c-13 -13 -7 -21 13 -16 11 3 17 9 14 14 -6 11 -18 12 -27
2z"/>
<path d="M4304 5416 c-9 -24 0 -50 19 -54 11 -2 17 3 16 15 0 10 -3 13 -6 6
-8 -21 -23 -15 -23 8 0 15 4 19 16 15 10 -4 14 -1 12 6 -6 18 -27 21 -34 4z"/>
<path d="M4357 5424 c-13 -13 -7 -23 11 -18 16 5 16 5 0 -6 -10 -6 -18 -19
-18 -28 0 -15 2 -15 10 -2 9 13 11 13 20 0 8 -11 10 -7 8 19 -3 33 -17 49 -31
35z"/>
<path d="M4410 5422 c0 -5 7 -13 16 -16 10 -4 14 -1 12 6 -5 15 -28 23 -28 10z"/>
<path d="M4456 5415 c-3 -8 3 -19 12 -25 15 -8 15 -11 2 -20 -13 -8 -13 -10 3
-10 20 0 23 20 5 38 -9 9 -9 12 1 12 7 0 9 5 6 10 -9 14 -22 12 -29 -5z"/>
<path d="M4250 5383 c0 -19 21 -27 33 -13 9 10 9 11 -2 5 -8 -4 -17 -2 -22 6
-6 9 -9 10 -9 2z"/>
<path d="M4430 5380 c0 -5 -7 -6 -17 -3 -11 4 -14 3 -9 -5 10 -17 36 -15 36 3
0 8 -2 15 -5 15 -3 0 -5 -4 -5 -10z"/>
<path d="M5280 5270 c0 -47 4 -80 10 -80 6 0 10 11 10 25 0 18 5 25 20 25 32
0 52 56 31 88 -4 7 -22 15 -39 17 l-32 4 0 -79z m54 34 c8 -20 -1 -34 -20 -34
-8 0 -14 10 -14 25 0 28 24 34 34 9z"/>
<path d="M5398 5339 c-12 -6 -18 -22 -18 -43 0 -28 5 -36 30 -46 17 -7 30 -19
30 -26 0 -17 -37 -19 -43 -1 -2 6 -8 8 -13 4 -11 -11 9 -41 30 -45 24 -5 46
16 46 44 0 23 -7 32 -45 59 -16 11 -18 16 -7 27 11 11 14 10 21 -1 5 -7 14
-12 20 -10 8 3 6 11 -4 27 -18 25 -22 26 -47 11z"/>
<path d="M5480 5342 c0 -5 7 -29 15 -52 8 -23 15 -55 15 -71 0 -15 5 -31 10
-34 6 -4 10 7 10 24 0 17 9 53 19 81 21 56 9 81 -13 28 l-14 -33 -11 27 c-10
27 -31 47 -31 30z"/>
<path d="M5607 5332 c-19 -21 -23 -102 -7 -133 20 -36 70 -17 70 26 -1 19 -1
19 -15 1 -8 -11 -20 -16 -30 -12 -24 9 -17 99 8 104 10 2 17 -3 17 -12 0 -9 5
-16 10 -16 14 0 13 33 -2 48 -17 17 -32 15 -51 -6z"/>
<path d="M5708 5344 c-11 -11 -10 -152 1 -159 6 -3 11 12 13 32 2 27 8 39 21
41 13 3 17 -4 17 -32 0 -19 5 -38 10 -41 6 -4 10 25 10 80 0 55 -4 84 -10 80
-5 -3 -10 -20 -10 -36 0 -44 -33 -36 -40 10 -3 18 -8 29 -12 25z"/>
<path d="M5812 5263 l3 -78 38 -3 c27 -2 37 1 37 12 0 9 -11 16 -27 18 -38 4
-45 38 -9 38 16 0 26 6 26 15 0 9 -10 15 -26 15 -34 0 -26 24 9 28 45 5 33 32
-13 32 l-41 0 3 -77z"/>
<path d="M5310 5050 l0 -80 29 0 c40 0 56 24 56 87 0 59 -11 73 -57 73 l-28 0
0 -80z m65 30 c11 -34 -4 -80 -26 -80 -16 0 -19 7 -19 50 0 43 3 50 19 50 11
0 23 -9 26 -20z"/>
<path d="M5430 5104 c-13 -33 -13 -90 0 -115 14 -26 55 -24 74 3 35 50 9 138
-40 138 -17 0 -27 -8 -34 -26z m65 -25 c8 -23 -3 -76 -16 -85 -30 -18 -55 76
-28 103 15 15 37 6 44 -18z"/>
<path d="M5550 5104 c-26 -67 6 -158 48 -135 9 5 21 9 26 10 6 0 11 17 12 37
1 39 -18 56 -39 34 -9 -10 -9 -14 1 -17 15 -6 16 -29 2 -38 -35 -21 -57 79
-24 106 14 11 18 11 29 -4 16 -22 25 -22 25 2 0 38 -66 43 -80 5z"/>
<path d="M5672 5105 c-31 -68 2 -160 48 -135 11 6 21 7 21 3 1 -4 5 8 8 27 9
46 4 59 -20 53 -20 -5 -27 -23 -9 -23 13 0 13 -27 0 -35 -19 -12 -40 17 -40
55 0 47 21 68 44 44 20 -20 35 -10 20 14 -18 29 -59 27 -72 -3z"/>
<path d="M5790 5080 c11 -28 20 -64 20 -80 0 -17 5 -30 10 -30 6 0 10 13 10
28 0 16 7 51 15 77 8 27 12 51 10 53 -8 9 -25 -10 -25 -28 0 -32 -17 -32 -24
0 -3 17 -12 30 -21 30 -12 0 -12 -8 5 -50z"/>
<path d="M5600 4930 c0 -8 6 -32 13 -52 l13 -37 11 42 c12 43 8 62 -6 38 -7
-11 -11 -9 -20 5 -8 14 -10 15 -11 4z"/>
<path d="M5293 4884 c-9 -39 -8 -44 5 -39 8 3 21 0 28 -6 11 -9 14 -8 14 1 0
21 -23 90 -30 90 -4 0 -11 -21 -17 -46z"/>
<path d="M5471 4878 c0 -39 2 -48 9 -32 4 12 16 24 25 28 25 9 15 50 -12 54
-21 3 -23 0 -22 -50z m34 22 c-3 -5 -10 -10 -16 -10 -5 0 -9 5 -9 10 0 6 7 10
16 10 8 0 12 -4 9 -10z"/>
<path d="M5533 4914 c-4 -11 1 -23 15 -35 28 -22 28 -32 0 -24 -22 7 -22 6 -5
-11 16 -18 18 -18 35 0 16 16 16 18 -5 36 -13 10 -23 24 -23 30 0 9 4 9 17 -1
14 -12 16 -12 11 1 -7 22 -37 24 -45 4z"/>
<path d="M5666 4915 c-10 -26 -7 -50 8 -70 12 -16 16 -17 30 -6 9 7 16 18 16
23 0 6 -7 5 -16 -3 -13 -10 -17 -10 -25 2 -15 23 -5 44 20 41 14 -1 21 2 19
10 -7 20 -45 21 -52 3z"/>
<path d="M5730 4885 c0 -25 5 -45 10 -45 6 0 10 9 10 20 0 11 5 20 10 20 6 0
10 -12 10 -27 0 -44 15 -14 16 33 2 47 -9 58 -21 22 l-8 -23 -4 23 c-8 39 -23
24 -23 -23z"/>
<path d="M5803 4883 c2 -41 5 -48 25 -51 12 -2 22 1 22 7 0 6 -7 11 -15 11 -8
0 -15 7 -15 15 0 8 7 15 16 15 8 0 12 5 9 10 -4 6 -11 8 -16 5 -5 -4 -9 1 -9
9 0 8 8 17 18 19 10 3 7 5 -10 6 -26 1 -27 -1 -25 -46z"/>
<path d="M5369 4915 c-3 -6 -3 -26 1 -45 4 -27 7 -30 11 -15 6 23 -4 75 -12
60z"/>
<path d="M5353 4745 c-10 -42 -3 -59 13 -33 5 7 12 5 21 -8 13 -17 14 -15 8
26 -12 76 -27 81 -42 15z"/>
<path d="M5419 4773 c-12 -15 -12 -16 3 -10 23 8 32 -7 13 -23 -19 -16 -19
-50 -1 -50 19 0 30 17 15 22 -9 3 -9 9 0 25 11 21 6 53 -9 53 -4 0 -14 -8 -21
-17z"/>
<path d="M5530 4745 c0 -25 5 -45 10 -45 6 0 10 9 10 20 0 11 5 20 10 20 6 0
10 -10 10 -22 0 -35 11 -13 16 31 2 23 -1 41 -6 41 -6 0 -10 -7 -10 -15 0 -8
-4 -15 -10 -15 -5 0 -10 7 -10 15 0 8 -4 15 -10 15 -5 0 -10 -20 -10 -45z"/>
<path d="M5616 4763 c-4 -16 -10 -37 -13 -48 -5 -17 -3 -18 9 -8 11 10 17 10
26 1 17 -17 20 -8 10 40 -11 48 -23 54 -32 15z"/>
<path d="M5679 4781 c12 -8 12 -14 1 -41 -15 -36 -3 -58 27 -45 17 8 17 8 1
12 -19 5 -24 28 -9 37 5 3 11 15 14 26 4 16 0 20 -21 20 -20 0 -23 -3 -13 -9z"/>
<path d="M5730 4745 c0 -48 20 -69 43 -46 8 8 7 11 -5 11 -27 0 -31 19 -6 29
20 8 21 10 6 16 -10 4 -18 11 -18 15 0 5 8 11 18 13 10 3 6 5 -10 6 -27 1 -28
-1 -28 -44z"/>
<path d="M5797 4784 c-8 -8 1 -24 14 -24 5 0 9 7 9 15 0 15 -12 20 -23 9z"/>
<path d="M5150 4650 c0 -5 5 -10 11 -10 5 0 7 5 4 10 -3 6 -8 10 -11 10 -2 0
-4 -4 -4 -10z"/>
<path d="M5180 4628 c0 -30 1 -31 15 -12 19 25 19 44 0 44 -10 0 -15 -10 -15
-32z"/>
<path d="M5220 4629 c0 -27 2 -29 15 -15 8 8 15 22 15 30 0 9 -7 16 -15 16
-10 0 -15 -10 -15 -31z"/>
<path d="M5267 4653 c-2 -5 -2 -14 -1 -20 1 -7 2 -17 3 -23 0 -5 9 -10 19 -10
9 0 13 4 7 8 -5 4 -10 14 -10 22 0 8 5 18 10 22 6 5 3 8 -7 8 -9 0 -19 -3 -21
-7z"/>
<path d="M5368 4646 c-27 -20 -22 -41 9 -44 25 -2 26 -1 8 11 -11 9 -15 19
-10 27 6 10 10 9 17 -4 11 -20 28 -21 28 0 0 8 -4 12 -10 9 -5 -3 -10 -1 -10
4 0 14 -11 13 -32 -3z"/>
<path d="M5458 4653 c-10 -2 -18 -9 -18 -14 0 -6 4 -8 9 -5 5 3 14 0 20 -8 9
-11 9 -15 -1 -19 -8 -4 -7 -6 5 -6 9 -1 17 6 17 14 0 8 -4 15 -10 15 -5 0 -10
5 -10 11 0 5 5 7 12 3 7 -4 8 -3 4 4 -4 7 -8 11 -9 11 -1 -1 -10 -3 -19 -6z"/>
<path d="M5551 4651 c-9 -6 -11 -16 -5 -32 7 -24 7 -24 15 5 10 35 8 38 -10
27z"/>
<path d="M5592 4640 c0 -14 2 -19 5 -12 2 6 2 18 0 25 -3 6 -5 1 -5 -13z"/>
<path d="M5622 4640 c0 -14 2 -19 5 -12 2 6 2 18 0 25 -3 6 -5 1 -5 -13z"/>
<path d="M5640 4645 c0 -9 7 -23 15 -31 13 -14 15 -14 15 1 0 9 -7 23 -15 31
-13 14 -15 14 -15 -1z"/>
<path d="M5682 4630 c1 -21 4 -27 10 -18 6 10 10 10 18 -2 8 -11 10 -8 7 15
-5 43 -36 47 -35 5z"/>
<path d="M5730 4630 c0 -22 5 -30 18 -30 9 0 13 4 7 8 -5 4 -10 14 -10 22 0 8
5 18 10 22 6 4 2 8 -7 8 -13 0 -18 -8 -18 -30z"/>
<path d="M5812 4628 c2 -23 7 -32 18 -29 8 2 25 3 37 3 21 0 22 4 8 43 -7 19
-8 18 -14 -5 -8 -29 -40 -41 -37 -13 0 10 6 21 11 25 6 4 2 8 -8 8 -15 0 -18
-7 -15 -32z"/>
<path d="M5900 4646 c0 -8 5 -18 11 -22 8 -4 7 -9 -2 -15 -10 -6 -10 -9 -2 -9
16 0 26 17 14 25 -6 3 -8 12 -4 20 3 8 0 15 -6 15 -6 0 -11 -6 -11 -14z"/>
<path d="M5940 4631 c0 -31 14 -49 25 -31 3 5 2 10 -3 10 -13 0 -10 33 3 42 6
4 2 8 -7 8 -13 0 -18 -8 -18 -29z"/>
<path d="M5980 4630 c0 -19 5 -30 14 -30 19 0 29 30 15 46 -18 22 -29 16 -29
-16z m22 -12 c-9 -9 -12 -7 -12 12 0 19 3 21 12 12 9 -9 9 -15 0 -24z"/>
<path d="M5310 4629 c0 -27 17 -32 22 -6 3 15 0 24 -9 24 -7 0 -13 -8 -13 -18z"/>
<path d="M5500 4625 c0 -14 4 -25 9 -25 4 0 6 11 3 25 -2 14 -6 25 -8 25 -2 0
-4 -11 -4 -25z"/>
<path d="M5770 4625 c0 -14 4 -25 9 -25 4 0 6 11 3 25 -2 14 -6 25 -8 25 -2 0
-4 -11 -4 -25z"/>
<path d="M5430 4610 c-13 -8 -12 -10 3 -10 9 0 17 5 17 10 0 12 -1 12 -20 0z"/>
<path d="M5076 4563 c-3 -3 -6 -19 -6 -35 0 -31 25 -39 48 -16 10 10 15 10 22
-2 7 -12 10 -8 10 13 0 16 -4 26 -10 22 -5 -3 -10 -1 -10 4 0 6 -4 11 -10 11
-5 0 -9 -10 -7 -21 1 -12 -4 -24 -12 -27 -10 -3 -12 0 -8 12 4 9 1 16 -6 16
-8 0 -8 3 2 9 7 5 9 11 3 14 -5 4 -12 4 -16 0z"/>
<path d="M5606 4563 c-3 -3 -6 -19 -6 -35 0 -20 5 -28 18 -28 9 0 13 4 7 8
-12 9 -13 35 -1 43 4 4 4 9 -2 12 -5 4 -12 4 -16 0z"/>
<path d="M5855 4562 c-12 -12 -4 -62 9 -62 16 0 16 31 1 42 -5 4 0 8 12 8 16
0 23 -7 25 -27 3 -28 3 -28 9 4 5 28 3 32 -23 35 -15 3 -30 2 -33 0z"/>
<path d="M5936 4563 c-3 -3 -6 -19 -6 -35 0 -20 5 -28 18 -27 11 0 12 2 4 6
-10 4 -10 8 -1 19 9 11 8 14 -2 14 -12 0 -12 2 0 9 7 5 9 11 3 14 -5 4 -12 4
-16 0z"/>
<path d="M4939 4558 c0 -2 -2 -16 -4 -33 -3 -19 -1 -25 4 -16 5 7 14 11 20 7
7 -5 9 -1 5 8 -3 9 -11 16 -18 16 -6 0 -4 5 4 10 10 6 11 10 3 10 -7 0 -13 -1
-14 -2z"/>
<path d="M4982 4535 c0 -16 2 -22 5 -12 2 9 2 23 0 30 -3 6 -5 -1 -5 -18z"/>
<path d="M5035 4550 c4 -6 11 -8 16 -5 14 9 11 15 -7 15 -8 0 -12 -5 -9 -10z"/>
<path d="M5185 4541 c-5 -16 -3 -26 6 -32 18 -11 22 1 11 32 l-9 24 -8 -24z"/>
<path d="M5221 4529 c0 -28 2 -31 9 -14 5 11 9 14 9 8 2 -26 18 -12 18 15 0
15 -2 21 -4 14 -4 -10 -8 -10 -19 -1 -12 9 -14 6 -13 -22z"/>
<path d="M5270 4549 c0 -5 5 -7 10 -4 6 3 10 -3 10 -15 0 -12 -4 -18 -10 -15
-5 3 -10 1 -10 -5 0 -23 25 -3 28 23 2 19 -1 27 -12 27 -9 0 -16 -5 -16 -11z"/>
<path d="M5330 4528 c1 -28 2 -30 11 -15 5 9 8 21 4 26 -3 5 1 12 7 14 8 3 6
6 -4 6 -14 1 -18 -7 -18 -31z"/>
<path d="M5370 4528 c0 -18 4 -28 8 -22 8 13 42 15 42 2 0 -4 7 -8 15 -8 8 0
15 5 15 11 0 8 4 8 15 -1 18 -15 35 -5 35 20 0 25 -17 35 -35 20 -11 -9 -15
-9 -15 -1 0 20 -28 11 -35 -11 l-8 -23 -4 23 c-7 35 -33 27 -33 -10z m75 -7
c-9 -16 -25 -3 -18 15 4 10 9 12 15 6 6 -6 7 -15 3 -21z m45 8 c0 -11 -4 -17
-10 -14 -5 3 -10 13 -10 21 0 8 5 14 10 14 6 0 10 -9 10 -21z"/>
<path d="M5640 4530 c0 -20 5 -30 15 -30 8 0 15 5 15 11 0 5 -4 7 -10 4 -5 -3
-10 3 -10 14 0 10 6 22 13 24 7 3 5 6 -5 6 -13 1 -18 -7 -18 -29z"/>
<path d="M5700 4529 c0 -23 4 -30 17 -27 11 2 18 14 20 31 1 21 -3 27 -18 27
-15 0 -19 -7 -19 -31z m30 -9 c0 -5 -4 -10 -10 -10 -5 0 -10 5 -10 10 0 6 5
10 10 10 6 0 10 -4 10 -10z"/>
<path d="M5757 4531 c7 -32 13 -40 13 -18 0 8 2 22 5 30 4 8 0 14 -9 14 -12 0
-14 -7 -9 -26z"/>
<path d="M5810 4528 c0 -30 1 -31 15 -12 19 25 19 44 0 44 -10 0 -15 -10 -15
-32z"/>
<path d="M5970 4538 c0 -16 6 -24 18 -25 13 -1 18 5 17 20 -2 31 -35 36 -35 5z"/>
<path d="M6030 4550 c0 -5 7 -7 15 -4 8 4 15 8 15 10 0 2 -7 4 -15 4 -8 0 -15
-4 -15 -10z"/>
<path d="M6073 4545 c-7 -8 -13 -19 -13 -24 0 -6 -7 -8 -15 -5 -8 4 -15 1 -15
-5 0 -17 30 -13 36 4 6 14 8 13 20 -2 12 -16 15 -16 25 -3 8 11 12 12 16 3 7
-19 33 -15 33 5 0 14 -2 15 -10 2 -8 -12 -10 -12 -16 3 -6 17 -8 17 -25 1 -19
-17 -24 -11 -20 24 2 15 -1 15 -16 -3z"/>
<path d="M6130 4556 c0 -2 7 -6 15 -10 8 -3 15 -1 15 4 0 6 -7 10 -15 10 -8 0
-15 -2 -15 -4z"/>
<path d="M6174 4545 c-4 -8 -4 -22 0 -30 8 -21 36 -19 36 3 0 14 -2 15 -10 2
-8 -12 -10 -12 -16 4 -4 11 -2 21 7 27 10 6 11 9 1 9 -7 0 -15 -7 -18 -15z"/>
<path d="M6226 4537 c-8 -32 -8 -33 12 -33 14 0 17 6 14 23 -6 32 -19 37 -26
10z"/>
<path d="M4881 4523 c0 -16 3 -23 5 -16 3 7 12 9 20 6 9 -3 14 2 14 16 0 14
-6 21 -20 21 -15 0 -20 -6 -19 -27z"/>
<path d="M5511 4528 c-1 -29 23 -40 32 -15 4 9 8 8 16 -3 9 -13 12 -13 23 -1
9 9 9 12 1 7 -7 -4 -17 3 -24 16 l-12 22 -10 -24 -10 -25 -7 25 -8 25 -1 -27z"/>
<path d="M6270 4510 c0 -5 5 -10 11 -10 5 0 7 5 4 10 -3 6 -8 10 -11 10 -2 0
-4 -4 -4 -10z"/>
<path d="M5047 4463 c-13 -12 -7 -63 7 -63 16 0 16 31 1 42 -6 5 -5 8 3 8 6 0
12 5 12 10 0 11 -13 13 -23 3z"/>
<path d="M5177 4463 c-13 -12 -7 -63 7 -63 16 0 16 31 1 42 -6 5 -5 8 3 8 6 0
12 5 12 10 0 11 -13 13 -23 3z"/>
<path d="M5500 4436 c0 -32 2 -35 30 -34 35 1 47 13 31 32 -6 7 -8 16 -4 19 3
4 1 7 -5 7 -16 0 -24 -18 -11 -26 8 -4 7 -9 -2 -15 -8 -5 -17 -9 -20 -9 -8 0
-5 33 5 48 4 7 1 12 -8 12 -12 0 -16 -10 -16 -34z"/>
<path d="M5695 4460 c-3 -6 -18 -7 -31 -4 -23 6 -25 4 -22 -21 3 -27 28 -49
28 -25 0 6 -4 8 -10 5 -5 -3 -10 4 -10 16 0 17 3 19 13 10 8 -6 17 -8 20 -4 4
3 7 1 7 -5 0 -7 4 -12 9 -12 5 0 9 11 9 25 0 27 -3 31 -13 15z"/>
<path d="M5790 4435 c0 -27 4 -35 18 -35 10 0 13 3 6 8 -15 10 -13 42 3 42 7
0 13 -9 13 -20 0 -11 4 -20 9 -20 5 0 9 11 9 24 0 16 -8 26 -22 30 -34 9 -36
8 -36 -29z"/>
<path d="M5868 4465 c-2 -3 -3 -18 0 -35 4 -31 16 -37 42 -20 9 6 17 5 22 -3
4 -7 8 2 8 21 0 37 -27 46 -32 10 -5 -35 -26 -33 -22 2 3 27 -4 38 -18 25z"/>
<path d="M4941 4433 c-1 -25 3 -33 17 -33 11 0 13 3 6 8 -7 4 -14 18 -17 32
-4 21 -4 20 -6 -7z"/>
<path d="M4983 4428 c-1 -18 1 -27 4 -20 4 9 8 10 18 2 9 -8 15 -8 20 0 4 6 1
9 -7 8 -7 -2 -13 4 -13 12 0 8 6 14 13 13 6 -2 12 2 12 7 0 6 -7 10 -15 10 -8
0 -15 -6 -15 -12 0 -10 -2 -10 -9 0 -5 9 -8 2 -8 -20z"/>
<path d="M5080 4448 c0 -8 9 -23 20 -33 16 -15 20 -15 20 -3 0 8 -9 23 -20 33
-16 15 -20 15 -20 3z"/>
<path d="M5131 4434 c15 -17 17 -23 7 -27 -9 -4 -9 -6 -1 -6 18 -1 26 18 14
33 -6 7 -8 16 -5 19 4 3 -3 5 -15 4 l-21 -1 21 -22z"/>
<path d="M5210 4430 c0 -35 25 -42 35 -10 8 24 -1 40 -21 40 -9 0 -14 -11 -14
-30z m22 -12 c-9 -9 -12 -7 -12 12 0 19 3 21 12 12 9 -9 9 -15 0 -24z"/>
<path d="M5277 4453 c-11 -10 -8 -41 4 -49 6 -3 16 -1 22 6 9 9 8 11 -3 8 -8
-2 -15 4 -15 12 0 8 6 14 13 13 6 -2 12 2 12 7 0 11 -23 14 -33 3z"/>
<path d="M5327 4453 c-11 -10 -8 -41 3 -48 6 -4 17 -2 24 5 11 8 15 8 18 -1 7
-20 28 0 27 24 -1 21 -1 21 -8 -2 l-7 -24 -17 26 c-18 27 -28 32 -40 20z m23
-17 c0 -8 -4 -18 -10 -21 -5 -3 -10 3 -10 14 0 12 5 21 10 21 6 0 10 -6 10
-14z"/>
<path d="M5410 4428 c0 -25 3 -29 10 -18 9 13 11 13 20 0 7 -11 8 -7 6 15 -5
44 -36 47 -36 3z"/>
<path d="M5468 4435 c2 -14 6 -25 8 -25 2 0 4 11 4 25 0 14 -4 25 -9 25 -4 0
-6 -11 -3 -25z"/>
<path d="M5587 4431 c7 -32 13 -40 13 -18 0 8 2 22 5 30 4 8 0 14 -9 14 -12 0
-14 -7 -9 -26z"/>
<path d="M5740 4435 c0 -28 12 -32 30 -10 14 16 6 35 -16 35 -8 0 -14 -10 -14
-25z"/>
<path d="M5970 4430 c0 -19 5 -30 14 -30 17 0 28 24 20 45 -11 27 -34 17 -34
-15z m22 -12 c-9 -9 -12 -7 -12 12 0 19 3 21 12 12 9 -9 9 -15 0 -24z"/>
<path d="M6041 4450 c3 -29 -1 -41 -11 -35 -5 3 -10 1 -10 -4 0 -14 17 -14 25
-1 5 8 11 7 21 -1 10 -8 18 -8 27 0 10 8 17 7 25 -1 9 -9 15 -9 24 0 6 6 8 15
3 19 -4 5 -10 3 -12 -4 -3 -10 -9 -10 -24 0 -16 10 -21 9 -28 -2 -5 -8 -11 -9
-15 -3 -3 6 1 18 10 26 8 9 11 16 5 16 -5 0 -13 -5 -17 -11 -4 -8 -9 -7 -16 2
-7 11 -9 11 -7 -1z"/>
<path d="M6110 4450 c0 -5 7 -7 15 -4 8 4 15 8 15 10 0 2 -7 4 -15 4 -8 0 -15
-4 -15 -10z"/>
<path d="M6165 4441 c-5 -16 -3 -26 6 -32 18 -11 22 1 11 32 l-9 24 -8 -24z"/>
<path d="M6201 4433 c-1 -25 3 -33 17 -33 11 0 13 3 6 8 -7 4 -14 18 -17 32
-4 21 -4 20 -6 -7z"/>
<path d="M5054 4356 c-10 -26 -1 -47 16 -35 12 9 13 12 1 16 -10 4 -10 7 -1
13 9 5 9 9 1 14 -6 4 -14 0 -17 -8z"/>
<path d="M5100 4335 c0 -27 4 -35 18 -35 12 0 13 3 5 8 -7 5 -10 19 -8 35 3
15 1 27 -5 27 -5 0 -10 -16 -10 -35z"/>
<path d="M5306 4343 c10 -40 14 -41 14 -5 0 18 -5 32 -10 32 -6 0 -8 -11 -4
-27z"/>
<path d="M5340 4335 c0 -19 4 -35 9 -35 4 0 8 16 7 35 -1 46 -16 46 -16 0z"/>
<path d="M5385 4356 c-3 -9 -7 -22 -9 -30 -3 -10 2 -14 15 -13 13 1 19 9 19
24 0 27 -18 40 -25 19z"/>
<path d="M5424 4356 c-8 -20 -1 -49 11 -53 6 -2 10 13 10 32 0 36 -11 47 -21
21z"/>
<path d="M5536 4363 c-13 -13 -6 -63 9 -63 10 0 15 10 15 29 0 30 -12 46 -24
34z"/>
<path d="M5643 4363 c-16 -6 -17 -49 -3 -58 6 -4 17 -2 24 5 11 8 15 8 18 -1
7 -22 28 1 27 29 -2 24 -2 24 -6 5 -5 -27 -20 -30 -26 -5 -4 16 -5 16 -6 0 0
-10 -8 -18 -16 -18 -18 0 -20 27 -2 33 6 2 10 7 7 9 -3 3 -11 3 -17 1z"/>
<path d="M5726 4363 c-3 -4 -6 -16 -6 -28 0 -14 6 -21 20 -21 24 0 24 1 5 20
-14 13 -13 15 5 13 12 -1 20 -8 20 -19 0 -10 5 -18 10 -18 14 0 12 26 -2 37
-19 15 -45 22 -52 16z"/>
<path d="M5810 4335 c0 -26 4 -35 16 -35 12 0 14 4 6 13 -5 6 -8 22 -6 35 2
12 -1 22 -6 22 -6 0 -10 -16 -10 -35z"/>
<path d="M5874 4356 c-3 -8 -4 -22 -2 -30 2 -12 6 -12 24 3 21 17 21 18 3 29
-16 10 -21 10 -25 -2z"/>
<path d="M6044 4356 c-8 -20 -1 -49 11 -53 6 -2 11 6 11 17 0 11 -4 20 -9 20
-5 0 -4 7 3 15 9 11 9 15 1 15 -6 0 -14 -6 -17 -14z"/>
<path d="M6087 4363 c-4 -3 -7 -18 -7 -32 0 -21 2 -23 10 -11 5 8 10 11 10 5
0 -5 4 -4 9 4 15 24 -4 53 -22 34z"/>
<path d="M5160 4333 c0 -16 6 -23 20 -23 14 0 20 7 20 23 0 16 -6 23 -20 23
-14 0 -20 -7 -20 -23z"/>
<path d="M5220 4351 c0 -5 -2 -16 -5 -24 -4 -8 0 -14 10 -14 17 0 21 32 5 42
-5 3 -10 2 -10 -4z"/>
<path d="M5255 4351 c-3 -5 -1 -12 4 -16 6 -3 8 -12 4 -20 -3 -8 0 -15 5 -15
17 0 25 20 13 34 -6 7 -8 16 -4 19 3 4 1 7 -5 7 -6 0 -13 -4 -17 -9z"/>
<path d="M5461 4343 c0 -11 3 -13 6 -5 7 17 23 15 23 -3 0 -8 -8 -15 -17 -15
-12 0 -14 -3 -6 -11 16 -16 33 -2 33 27 0 17 -5 24 -20 24 -13 0 -20 -6 -19
-17z"/>
<path d="M5578 4334 c3 -19 7 -22 13 -12 13 20 11 38 -5 38 -9 0 -12 -8 -8
-26z"/>
<path d="M5931 4353 c3 -20 -2 -34 -11 -28 -5 3 -10 2 -10 -4 0 -20 22 -22 27
-2 6 22 18 27 28 11 3 -5 1 -10 -5 -10 -6 0 -8 -5 -5 -10 5 -8 11 -7 21 1 10
8 11 15 4 24 -5 6 -7 15 -3 18 3 4 -6 7 -20 7 -15 0 -26 -3 -26 -7z"/>
<path d="M6000 4335 c0 -6 7 -12 15 -12 8 0 15 6 15 12 0 6 -7 12 -15 12 -8 0
-15 -6 -15 -12z"/>
<path d="M5070 4240 c0 -30 21 -42 35 -20 3 6 -1 7 -9 4 -12 -4 -16 0 -16 16
0 20 2 21 18 9 15 -13 16 -12 3 4 -20 25 -31 21 -31 -13z"/>
<path d="M5142 4240 c1 -17 8 -30 15 -30 15 0 17 16 3 25 -5 3 -7 12 -3 20 3
8 0 15 -6 15 -6 0 -10 -13 -9 -30z"/>
<path d="M5180 4260 c0 -5 5 -10 10 -10 6 0 10 5 10 10 0 6 -4 10 -10 10 -5 0
-10 -4 -10 -10z"/>
<path d="M5220 4260 c0 -6 5 -8 10 -5 6 3 10 2 10 -4 0 -5 -4 -11 -9 -13 -5
-1 -2 -9 6 -17 13 -11 14 -9 11 15 -3 26 -28 48 -28 24z"/>
<path d="M5280 4241 c0 -30 14 -49 24 -32 4 5 0 12 -6 14 -10 4 -10 6 0 6 17
1 15 41 -3 41 -10 0 -15 -10 -15 -29z"/>
<path d="M5376 4243 c10 -40 14 -41 14 -5 0 18 -5 32 -10 32 -6 0 -8 -11 -4
-27z"/>
<path d="M5430 4255 c-7 -8 -10 -22 -6 -30 6 -17 36 -21 36 -5 0 6 -5 9 -11 8
-6 -2 -13 2 -16 9 -2 6 4 13 14 15 12 2 14 6 7 11 -7 4 -17 0 -24 -8z"/>
<path d="M5540 4241 c0 -21 5 -31 16 -31 11 0 14 8 12 27 -4 39 -28 42 -28 4z"/>
<path d="M5646 4247 c-9 -33 -7 -37 9 -31 16 7 20 39 6 48 -5 3 -11 -4 -15
-17z"/>
<path d="M5687 4264 c-4 -4 -7 -18 -7 -31 0 -17 6 -23 21 -23 16 0 20 5 17 27
-3 26 -18 39 -31 27z"/>
<path d="M5737 4264 c-4 -4 -7 -18 -7 -31 0 -26 27 -32 37 -7 6 17 -19 49 -30
38z m23 -29 c0 -8 -4 -15 -10 -15 -5 0 -10 7 -10 15 0 8 5 15 10 15 6 0 10 -7
10 -15z"/>
<path d="M5820 4241 c0 -31 14 -49 25 -31 3 5 0 10 -7 10 -10 0 -10 2 1 9 10
6 10 10 1 16 -9 6 -9 10 1 16 11 7 10 9 -3 9 -13 0 -18 -8 -18 -29z"/>
<path d="M5880 4240 c0 -20 5 -30 15 -30 10 0 15 10 15 30 0 20 -5 30 -15 30
-10 0 -15 -10 -15 -30z"/>
<path d="M5925 4250 c-8 -27 10 -49 26 -33 13 13 8 45 -8 50 -6 2 -14 -6 -18
-17z m25 -15 c0 -8 -4 -15 -10 -15 -5 0 -10 7 -10 15 0 8 5 15 10 15 6 0 10
-7 10 -15z"/>
<path d="M6020 4245 c0 -14 4 -24 9 -21 5 4 12 0 15 -6 3 -7 4 0 3 16 -3 38
-27 48 -27 11z"/>
<path d="M6065 4261 c-3 -6 0 -11 9 -11 8 0 17 -6 20 -12 3 -7 5 -4 3 6 -2 22
-22 32 -32 17z"/>
<path d="M5262 4235 c0 -16 2 -22 5 -12 2 9 2 23 0 30 -3 6 -5 -1 -5 -18z"/>
<path d="M5350 4241 c0 -11 -6 -22 -12 -24 -8 -3 -6 -6 5 -6 12 -1 17 7 17 24
0 14 -2 25 -5 25 -3 0 -5 -9 -5 -19z"/>
<path d="M5470 4247 c0 -7 9 -18 20 -25 18 -11 20 -10 20 15 0 22 -2 25 -10
13 -6 -10 -10 -11 -10 -2 0 6 -4 12 -10 12 -5 0 -10 -6 -10 -13z"/>
<path d="M5590 4233 c0 -22 2 -25 10 -13 13 20 13 40 0 40 -5 0 -10 -12 -10
-27z"/>
<path d="M5780 4239 c0 -27 17 -32 22 -6 3 15 0 24 -9 24 -7 0 -13 -8 -13 -18z"/>
<path d="M5978 4237 c-3 -16 0 -23 12 -23 12 0 15 7 12 23 -2 13 -8 23 -12 23
-4 0 -10 -10 -12 -23z"/>
<path d="M6065 4210 c4 -6 11 -8 16 -5 14 9 11 15 -7 15 -8 0 -12 -5 -9 -10z"/>
<path d="M5152 4158 c-17 -17 -15 -41 2 -35 8 3 17 1 20 -6 2 -7 5 -3 5 8 1
31 -13 47 -27 33z"/>
<path d="M5194 4154 c3 -8 6 -19 6 -24 0 -4 9 -10 20 -13 13 -3 20 0 20 8 0 7
2 19 3 27 2 7 2 10 0 6 -3 -4 -16 -3 -30 3 -21 8 -24 7 -19 -7z"/>
<path d="M5280 4156 c0 -8 -2 -21 -5 -28 -4 -9 1 -14 13 -14 14 0 17 6 14 23
-5 27 -22 41 -22 19z"/>
<path d="M5320 4151 c0 -14 5 -19 15 -14 17 6 15 25 -3 31 -7 2 -12 -5 -12
-17z"/>
<path d="M5364 4156 c-8 -22 3 -49 19 -43 6 2 12 14 12 27 0 27 -22 39 -31 16z
m26 -16 c0 -11 -4 -20 -10 -20 -5 0 -10 9 -10 20 0 11 5 20 10 20 6 0 10 -9
10 -20z"/>
<path d="M5450 4140 c0 -22 5 -30 18 -30 14 0 15 2 2 10 -12 8 -12 10 -1 10
10 0 11 3 2 14 -9 11 -9 15 1 19 8 4 7 6 -4 6 -13 1 -18 -7 -18 -29z"/>
<path d="M5497 4164 c-4 -4 -7 -18 -7 -31 0 -18 5 -24 18 -21 10 2 17 12 17
27 0 24 -15 37 -28 25z"/>
<path d="M5547 4163 c-13 -13 -7 -53 8 -53 8 0 15 5 15 11 0 5 -4 7 -10 4 -5
-3 -10 3 -10 15 0 12 5 18 10 15 6 -3 10 -1 10 4 0 12 -13 14 -23 4z"/>
<path d="M5597 4163 c-12 -12 -7 -43 7 -43 9 0 12 8 8 25 -5 27 -6 28 -15 18z"/>
<path d="M5631 4138 c0 -18 3 -27 6 -20 2 6 9 10 14 6 5 -3 9 6 9 20 0 16 -6
26 -15 26 -10 0 -15 -10 -14 -32z"/>
<path d="M5677 4164 c-14 -14 -7 -26 8 -14 13 10 15 9 15 -10 0 -16 -4 -20
-15 -16 -8 3 -15 1 -15 -5 0 -6 8 -9 18 -7 10 2 17 12 17 27 0 24 -15 37 -28
25z"/>
<path d="M5720 4140 c0 -22 5 -30 18 -29 10 0 12 3 5 6 -7 2 -13 14 -13 24 0
11 5 17 10 14 6 -3 10 -1 10 4 0 6 -7 11 -15 11 -10 0 -15 -10 -15 -30z"/>
<path d="M5791 4162 c-1 -8 -6 -10 -13 -6 -7 4 -5 -2 5 -13 9 -11 14 -23 10
-26 -3 -4 -1 -7 5 -7 7 0 12 6 11 13 -1 18 -17 54 -18 39z"/>
<path d="M5828 4140 c5 -36 7 -35 16 3 4 19 3 27 -7 27 -9 0 -12 -9 -9 -30z"/>
<path d="M5881 4156 c-14 -17 -4 -46 17 -46 13 0 13 2 -3 13 -19 14 -12 43 7
31 7 -4 8 -2 4 4 -9 15 -11 15 -25 -2z"/>
<path d="M5927 4164 c-4 -4 -7 -18 -7 -31 0 -18 5 -24 18 -21 10 2 17 12 17
27 0 24 -15 37 -28 25z m23 -24 c0 -11 -4 -20 -10 -20 -5 0 -10 9 -10 20 0 11
5 20 10 20 6 0 10 -9 10 -20z"/>
<path d="M5088 4132 c3 -18 7 -20 13 -10 7 10 9 10 9 -2 1 -12 3 -11 11 3 13
21 4 36 -19 34 -14 -1 -17 -7 -14 -25z"/>
<path d="M5415 4143 c3 -8 5 -20 6 -26 0 -7 4 -3 9 8 12 29 12 32 -5 32 -10 0
-14 -6 -10 -14z"/>
<path d="M6034 4144 c3 -9 6 -18 6 -20 0 -2 4 -4 9 -4 6 0 9 9 8 20 -1 11 -8
20 -15 20 -9 0 -12 -6 -8 -16z"/>
<path d="M5330 4120 c-13 -8 -12 -10 3 -10 9 0 17 5 17 10 0 12 -1 12 -20 0z"/>
<path d="M5990 4118 c0 -4 4 -8 9 -8 6 0 12 4 15 8 3 5 -1 9 -9 9 -8 0 -15 -4
-15 -9z"/>
</g>
</svg>
